# xmcd CD database file
#
# Track frame offsets:
#	150
#	19860
#	37106
#	52094
#	66270
#	80153
#	97464
#	113755
#	129476
#	146450
#	158353
#	174007
#	195616
#	208434
#	223613
#	237486
#	251803
#	267109
#	284116
#	301529
#	315060
#
# Disc length: 4483 seconds
#
# Revision: 0
# Processed by: cddbd v1.5PL3 Copyright (c) Steve Scherf et al.
# Submitted via: CDex 1.51
#
DISCID=38118115
DTITLE=Kenny Rogers - Love Songs
DYEAR=2001
DGENRE=Country
TTITLE0=She Believes In Me
TTITLE1=Endless Love
TTITLE2=Crazy
TTITLE3=You Are So Beautiful
TTITLE4=Love Me Tender
TTITLE5=Lady
TTITLE6=The Wind Beneath My Wings
TTITLE7=Through The Years
TTITLE8=When A Man Loves A Woman
TTITLE9=Always
TTITLE10=When I Fall In Love
TTITLE11=Have I Told You Lately That I Love You
TTITLE12=As Time Goes By
TTITLE13=I Can't Help Falling In Love
TTITLE14=You Send Me
TTITLE15=You Light My Life
TTITLE16=Unforgettable
TTITLE17=You Decorate My Life
TTITLE18=I Swear
TTITLE19=I Will Always Love You
TTITLE20=Always And Forever
EXTD=YEAR: 2001
EXTT0=
EXTT1=
EXTT2=
EXTT3=
EXTT4=
EXTT5=
EXTT6=
EXTT7=
EXTT8=
EXTT9=
EXTT10=
EXTT11=
EXTT12=
EXTT13=
EXTT14=
EXTT15=
EXTT16=
EXTT17=
EXTT18=
EXTT19=
EXTT20=
PLAYORDER=
